0
SECTION
2
HEADER
9
$INSUNITS
70
1
9
$ACADVER
1
AC1014
9
$HANDSEED
5
FFFF
0
ENDSEC
0
SECTION
2
TABLES
0
TABLE
2
VPORT
5
8
100
AcDbSymbolTable
0
ENDTAB
0
TABLE
2
LTYPE
5
5
100
AcDbSymbolTable
0
LTYPE
5
14
100
AcDbSymbolTableRecord
100
AcDbLinetypeTableRecord
2
BYBLOCK
70
0
0
LTYPE
5
15
100
AcDbSymbolTableRecord
100
AcDbLinetypeTableRecord
2
BYLAYER
70
0
0
LTYPE
5
16
100
AcDbSymbolTableRecord
100
AcDbLinetypeTableRecord
2
DASHED
70
0
3
Dashed __ __ __ __ __ __ __ __ __ __ __ __ __ _
72
65
73
2
40
0.75
49
0.5
74
0
49
-0.25
74
0
0
ENDTAB
0
TABLE
2
LAYER
5
2
100
AcDbSymbolTable
70
2
0
LAYER
5
50
100
AcDbSymbolTableRecord
100
AcDbLayerTableRecord
2
0
70
0
62
7
6
CONTINUOUS
0
ENDTAB
0
TABLE
2
STYLE
5
3
100
AcDbSymbolTable
70
1
0
STYLE
5
11
100
AcDbSymbolTableRecord
100
AcDbTextStyleTableRecord
2
STANDARD
70
0
0
ENDTAB
0
TABLE
2
VIEW
5
6
100
AcDbSymbolTable
70
0
0
ENDTAB
0
TABLE
2
UCS
5
7
100
AcDbSymbolTable
70
0
0
ENDTAB
0
TABLE
2
APPID
5
9
100
AcDbSymbolTable
70
2
0
APPID
5
12
100
AcDbSymbolTableRecord
100
AcDbRegAppTableRecord
2
ACAD
70
0
0
ENDTAB
0
TABLE
2
DIMSTYLE
5
A
100
AcDbSymbolTable
70
1
0
ENDTAB
0
TABLE
2
BLOCK_RECORD
5
1
100
AcDbSymbolTable
70
1
0
BLOCK_RECORD
5
1F
100
AcDbSymbolTableRecord
100
AcDbBlockTableRecord
2
*MODEL_SPACE
0
BLOCK_RECORD
5
1B
100
AcDbSymbolTableRecord
100
AcDbBlockTableRecord
2
*PAPER_SPACE
0
ENDTAB
0
ENDSEC
0
SECTION
2
BLOCKS
0
BLOCK
5
20
100
AcDbEntity
100
AcDbBlockBegin
2
*MODEL_SPACE
0
ENDBLK
5
21
100
AcDbEntity
100
AcDbBlockEnd
0
BLOCK
5
1C
100
AcDbEntity
100
AcDbBlockBegin
2
*PAPER_SPACE
0
ENDBLK
5
1D
100
AcDbEntity
100
AcDbBlockEnd
0
ENDSEC
0
SECTION
2
ENTITIES
0
ARC
5
100
100
AcDbEntity
8
0
100
AcDbCircle
10
-2.827000000194539
20
2.9999999999999987
30
0
40
0.29999999980546321
210
0
220
-0
230
1
100
AcDbArc
50
90
51
176.52678892107693
0
SPLINE
5
101
100
AcDbEntity
8
0
100
AcDbSpline
70
0
71
3
72
48
73
44
74
0
42
0.000000001
43
0.0000000001
44
0.0000000001
40
-3.156271624179968
40
-3.156271624179968
40
-3.156271624179968
40
-3.156271624179968
40
-1.7359427667454499
40
-1.7359427667454499
40
-0.26847407602503803
40
-0.26847407602503803
40
-0.085947636951800979
40
-0.085947636951800979
40
-0.062736457489443287
40
-0.062736457489443287
40
-0.05973310345124002
40
-0.05973310345124002
40
-0.058059127132502102
40
-0.058059127132502102
40
-0.057237791470256372
40
-0.057237791470256372
40
-0.056312185778894359
40
-0.056312185778894359
40
-0.055130213876948997
40
-0.055130213876948997
40
-0.053643039581680145
40
-0.053643039581680145
40
-0.050081576364857598
40
-0.050081576364857598
40
-0.044984757102553834
40
-0.044984757102553834
40
-0.043708185280818025
40
-0.043708185280818025
40
-0.042963328403626738
40
-0.042963328403626738
40
-0.042639760515175172
40
-0.042639760515175172
40
-0.041920995346254986
40
-0.041920995346254986
40
-0.040780499821749784
40
-0.040780499821749784
40
-0.036804814052212462
40
-0.036804814052212462
40
-0.03211253422666871
40
-0.03211253422666871
40
-0.02948377307055066
40
-0.02948377307055066
40
-5.9830812105573718e-08
40
-5.9830812105573718e-08
40
-5.9830812105573718e-08
40
-5.9830812105573718e-08
10
-3.1264489728587614
20
3.0181745551007575
30
0
10
-3.1265226856075734
20
2.8470017095924565
30
0
10
-3.1266248591867267
20
2.6415661556848429
30
0
10
-3.1267665471312909
20
2.3573458458716581
30
0
10
-3.1268411148050013
20
2.212915914104344
30
0
10
-3.1269124193480224
20
2.0505215176045386
30
0
10
-3.1269201392987149
20
2.0323782615375534
30
0
10
-3.1269284300512248
20
2.0120216206682993
30
0
10
-3.1269293602540276
20
2.009724614560318
30
0
10
-3.1269304045583604
20
2.0071305343471595
30
0
10
-3.1269305241101177
20
2.006833336167686
30
0
10
-3.1269307101525365
20
2.0063704889185465
30
0
10
-3.1269307767095094
20
2.0062048332151106
30
0
10
-3.1269308758797623
20
2.0059578986313582
30
0
10
-3.1269309085091228
20
2.0058766340722127
30
0
10
-3.1269309778954772
20
2.0057037882533515
30
0
10
-3.1269310151854421
20
2.0056122070029652
30
0
10
-3.1269311128315023
20
2.0054036791301826
30
0
10
-3.1269311742354629
20
2.0052867475444303
30
0
10
-3.1269313250065172
20
2.0050226571140009
30
0
10
-3.1269314174779375
20
2.0048755284808628
30
0
10
-3.1269317513685149
20
2.0043760141319336
30
0
10
-3.1269320177512334
20
2.0040273409024127
30
0
10
-3.126932674936401
20
2.0031607153274433
30
0
10
-3.1269330295975304
20
2.0026876933307847
30
0
10
-3.1269333693991808
20
2.0020715018429414
30
0
10
-3.1269334313334851
20
2.0019481108728074
30
0
10
-3.1269335175089195
20
2.0017526799095009
30
0
10
-3.1269335466988259
20
2.0016806721686624
30
0
10
-3.1269335844984885
20
2.0015773776136969
30
0
10
-3.1269335954100179
20
2.0015460956580755
30
0
10
-3.126933628761706
20
2.0014453237168932
30
0
10
-3.1269336490036101
20
2.0013758375603814
30
0
10
-3.1269336936027412
20
2.0011960861645797
30
0
10
-3.126933713400919
20
2.0010858361830608
30
0
10
-3.1269337639630601
20
2.0005912130647627
30
0
10
-3.126933699586977
20
2.000207201143779
30
0
10
-3.1269332456688521
20
1.9993693664108518
30
0
10
-3.1269327077231637
20
1.9987459317639813
30
0
10
-3.126930788516233
20
1.9978590680548596
30
0
10
-3.1269298943467492
20
1.9975401403390458
30
0
10
-3.1269163519586471
20
1.9936499198482798
30
0
10
-3.1268738352195666
20
1.9892436374367557
30
0
10
-3.1267322258308163
20
1.9853769737786187
30
0
0
SPLINE
5
102
100
AcDbEntity
8
0
100
AcDbSpline
70
0
71
3
72
16
73
12
74
0
42
0.000000001
43
0.0000000001
44
0.0000000001
40
0
40
0
40
0
40
0
40
0.38579337356936427
40
0.38579337356936427
40
0.84798793571842679
40
0.84798793571842679
40
1.0919362052759067
40
1.0919362052759067
40
1.2667889889576023
40
1.2667889889576023
40
1.4419238185919219
40
1.4419238185919219
40
1.4419238185919219
40
1.4419238185919219
10
-3.1267322248917875
20
1.9853769738130069
30
0
10
-3.1248794268989339
20
1.9347818356026265
30
0
10
-3.1134573193157968
20
1.8850130888668559
30
0
10
-3.0684934015300405
20
1.783042606434357
30
0
10
-3.0444266367421355
20
1.7560048039783722
30
0
10
-2.9903703576021825
20
1.6915830391110542
30
0
10
-2.9822501767009442
20
1.681905784349488
30
0
10
-2.969126941158331
20
1.6565064116143235
30
0
10
-2.9649331591433579
20
1.6452895522521345
30
0
10
-2.9592850174008696
20
1.6220600019105491
30
0
10
-2.9578660054574302
20
1.6101732154717769
30
0
10
-2.9578660000000174
20
1.5982503878054692
30
0
0
LINE
5
103
100
AcDbEntity
8
0
100
AcDbLine
10
-2.9578660000000174
20
1.5982503878054692
30
0
11
-2.9578660000000014
21
-1.5982503190237571
31
0
0
SPLINE
5
104
100
AcDbEntity
8
0
100
AcDbSpline
70
0
71
3
72
16
73
12
74
0
42
0.000000001
43
0.0000000001
44
0.0000000001
40
0
40
0
40
0
40
0
40
0.084598773125123136
40
0.084598773125123136
40
0.1690185729287515
40
0.1690185729287515
40
0.31424749065915991
40
0.31424749065915991
40
0.6664476621973916
40
0.6664476621973916
40
0.96884954417495284
40
0.96884954417495284
40
0.96884954417495284
40
0.96884954417495284
10
-2.9578660000000014
20
-1.5982503190237571
30
0
10
-2.9578660000000014
20
-1.6093525202212799
30
0
10
-2.9590964766075372
20
-1.6204284329340954
30
0
10
-2.9639998457013346
20
-1.6421355690059825
30
0
10
-2.9676429950621621
20
-1.6526676456164826
30
0
10
-2.980652896284969
20
-1.6800022196753654
30
0
10
-2.9900185615963064
20
-1.6911637849571881
30
0
10
-3.0445847052126567
20
-1.7561931826459913
30
0
10
-3.0674724897972827
20
-1.7816475023932323
30
0
10
-3.1130860577241459
20
-1.8834150089077402
30
0
10
-3.1248495166911718
20
-1.9339650059836939
30
0
10
-3.1267322248918372
20
-1.9853769738143403
30
0
0
SPLINE
5
105
100
AcDbEntity
8
0
100
AcDbSpline
70
0
71
3
72
30
73
26
74
0
42
0.000000001
43
0.0000000001
44
0.0000000001
40
-2.8249564056969967
40
-2.8249564056969967
40
-2.8249564056969967
40
-2.8249564056969967
40
-2.8132402477927538
40
-2.8132402477927538
40
-2.8087420062276105
40
-2.8087420062276105
40
-2.8077634090172494
40
-2.8077634090172494
40
-2.8046385402838059
40
-2.8046385402838059
40
-2.8040476253259849
40
-2.8040476253259849
40
-2.8037674993145063
40
-2.8037674993145063
40
-2.8035440627838444
40
-2.8035440627838444
40
-2.8034125425017131
40
-2.8034125425017131
40
-2.8025450070588991
40
-2.8025450070588991
40
-2.791759656595354
40
-2.791759656595354
40
-1.3043964169094422
40
-1.3043964169094422
40
-1.0001313108714752e-06
40
-1.0001313108714752e-06
40
-1.0001313108714752e-06
40
-1.0001313108714752e-06
10
-3.1267322242616311
20
-1.9853793207599462
30
0
10
-3.1268377656852167
20
-1.9882603661601856
30
0
10
-3.1268863171784469
20
-1.9912974266524279
30
0
10
-3.1269196457228055
20
-1.9951863105726746
30
0
10
-3.1269259181435669
20
-1.9963549044286597
30
0
10
-3.1269298054502195
20
-1.9975280718014532
30
0
10
-3.1269303880617234
20
-1.9977381858750349
30
0
10
-3.1269324273505195
20
-1.9986171519018796
30
0
10
-3.126933033102214
20
-1.9992959972153517
30
0
10
-3.1269331133776577
20
-2.0000923950337133
30
0
10
-3.1269331069313644
20
-2.0002190551044561
30
0
10
-3.1269330727610991
20
-2.0004057502603247
30
0
10
-3.1269330580111623
20
-2.0004657902117997
30
0
10
-3.1269330252086744
20
-2.0005737222282365
30
0
10
-3.1269330084292286
20
-2.000621611593751
30
0
10
-3.1269329784511455
20
-2.0006976922147253
30
0
10
-3.1269329079691874
20
-2.0008745933199048
30
0
10
-3.1269328636840279
20
-2.0009858728406988
30
0
10
-3.1269328252187432
20
-2.0010825030128925
30
0
10
-3.1269323084050487
20
-2.0023804733631727
30
0
10
-3.1269318288967134
20
-2.0035808644983732
30
0
10
-3.126864962227208
20
-2.1704461014010721
30
0
10
-3.1267770323391506
20
-2.3361100462776747
30
0
10
-3.1266220409096435
20
-2.6470588080906805
30
0
10
-3.1265226858285167
20
-2.8469940259948863
30
0
10
-3.1264489727783737
20
-3.0181745551081662
30
0
0
ARC
5
106
100
AcDbEntity
8
0
100
AcDbCircle
10
-2.827
20
-3
30
0
40
0.30000000291900536
210
0
220
0
230
1
100
AcDbArc
50
183.47321106077419
51
267.45634259445285
0
SPLINE
5
107
100
AcDbEntity
8
0
100
AcDbSpline
70
0
71
3
72
26
73
22
74
0
42
0.000000001
43
0.0000000001
44
0.0000000001
40
-2.2905174419719905
40
-2.2905174419719905
40
-2.2905174419719905
40
-2.2905174419719905
40
-1.1416259132382998
40
-1.1416259132382998
40
-0.055782589159597794
40
-0.055782589159597794
40
-0.049764108240700884
40
-0.049764108240700884
40
-0.048350219311213964
40
-0.048350219311213964
40
-0.047647910785466027
40
-0.047647910785466027
40
-0.046779235609963013
40
-0.046779235609963013
40
-0.04510737596565613
40
-0.04510737596565613
40
-0.038195612281064308
40
-0.038195612281064308
40
-0.033840778749036945
40
-0.033840778749036945
40
-1.4316178969328786e-06
40
-1.4316178969328786e-06
40
-1.4316178969328786e-06
40
-1.4316178969328786e-06
10
-2.8403141844793147
20
-3.2997044093087489
30
0
10
-2.6982433035615592
20
-3.2997426276838406
30
0
10
-2.5549781908138511
20
-3.2997821811152188
30
0
10
-2.2756577362442179
20
-3.2998559411817925
30
0
10
-2.1343165301187259
20
-3.2998917321802645
30
0
10
-2.0032486832688257
20
-3.2999209446889903
30
0
10
-2.0025261945984649
20
-3.299921105579831
30
0
10
-2.0016339756159884
20
-3.2999213040964528
30
0
10
-2.0014642527976556
20
-3.2999213418517184
30
0
10
-2.0012102250571204
20
-3.2999213983493472
30
0
10
-2.0011259201407783
20
-3.2999214143544524
30
0
10
-2.0009373397014669
20
-3.2999214415110565
30
0
10
-2.0008330736979705
20
-3.299921450944824
30
0
10
-2.0005281128273578
20
-3.299921459699886
30
0
10
-2.000327446596756
20
-3.299921441604281
30
0
10
-1.9992971418243244
20
-3.29992119498367
30
0
10
-1.998461880090596
20
-3.2999204833436866
30
0
10
-1.9971101433311784
20
-3.2999177589775037
30
0
10
-1.9965847723090429
20
-3.2999163141165502
30
0
10
-1.9920015166438687
20
-3.2998990555066312
30
0
10
-1.986885000133592
20
-3.2998475853323637
30
0
10
-1.9824468243776594
20
-3.2996915944380865
30
0
0
SPLINE
5
108
100
AcDbEntity
8
0
100
AcDbSpline
70
0
71
3
72
14
73
10
74
0
42
0.000000001
43
0.0000000001
44
0.0000000001
40
0.00011102377777761789
40
0.00011102377777761789
40
0.00011102377777761789
40
0.00011102377777761789
40
0.4649081993984216
40
0.4649081993984216
40
0.56699996188002011
40
0.56699996188002011
40
0.75229612182600092
40
0.75229612182600092
40
0.92257858165650908
40
0.92257858165650908
40
0.92257858165650908
40
0.92257858165650908
10
-1.982446822548537
20
-3.2996916464688009
30
0
10
-1.9214876886098189
20
-3.2975497900282327
30
0
10
-1.8614519911354022
20
-3.28427994960273
30
0
10
-1.7929131443493618
20
-3.2552959876386294
30
0
10
-1.7838747790322598
20
-3.2508891609598232
30
0
10
-1.6102390498800498
20
-3.166229763294846
30
0
10
-1.5660417249573577
20
-3.1428392489807724
30
0
10
-1.3822279671477249
20
-3.0912420604527213
30
0
10
-1.2913189644651257
20
-3.0787401574803188
30
0
10
-1.200000000000035
20
-3.0787401574803175
30
0
0
LINE
5
109
100
AcDbEntity
8
0
100
AcDbLine
10
-1.2000000000000348
20
-3.0787401574803179
30
0
11
1.2000000000000395
21
-3.0787401574803193
31
0
0
SPLINE
5
110
100
AcDbEntity
8
0
100
AcDbSpline
70
0
71
3
72
12
73
8
74
0
42
0.000000001
43
0.0000000001
44
0.0000000001
40
0
40
0
40
0
40
0
40
0.71789343454252086
40
0.71789343454252086
40
1.137460842988685
40
1.137460842988685
40
1.3297169599665657
40
1.3297169599665657
40
1.3297169599665657
40
1.3297169599665657
10
1.2000000000000397
20
-3.0787401574803193
30
0
10
1.2942117368166437
20
-3.0787401574803201
30
0
10
1.387971777720014
20
-3.0920475029871524
30
0
10
1.5315018433759398
20
-3.1336766827192437
30
0
10
1.5830337074154581
20
-3.1533661828506951
30
0
10
1.6554288886384263
20
-3.1881103364960568
30
0
10
1.7741129249555239
20
-3.2461295848620089
30
0
10
1.7808738233327377
20
-3.2494259880104539
30
0
0
SPLINE
5
111
100
AcDbEntity
8
0
100
AcDbSpline
70
0
71
3
72
10
73
6
74
0
42
0.000000001
43
0.0000000001
44
0.0000000001
40
-0.53185465586601799
40
-0.53185465586601799
40
-0.53185465586601799
40
-0.53185465586601799
40
-0.26593506880902051
40
-0.26593506880902051
40
0
40
0
40
0
40
0
10
1.9824501750224703
20
-3.2996917642499684
30
0
10
1.9475607401798607
20
-3.2984661243694728
30
0
10
1.9128967634069758
20
-3.293591240244147
30
0
10
1.8451455082378083
20
-3.2766956415044173
30
0
10
1.8122434116448254
20
-3.26472082659122
30
0
10
1.7808738234351245
20
-3.2494259880603735
30
0
0
SPLINE
5
112
100
AcDbEntity
8
0
100
AcDbSpline
70
0
71
3
72
38
73
34
74
0
42
0.000000001
43
0.0000000001
44
0.0000000001
40
-1.938616909849616
40
-1.938616909849616
40
-1.938616909849616
40
-1.938616909849616
40
-1.9377844099011465
40
-1.9377844099011465
40
-1.9129586575616027
40
-1.9129586575616027
40
-1.9066867232721376
40
-1.9066867232721376
40
-1.9012793448410952
40
-1.9012793448410952
40
-1.9002341818394251
40
-1.9002341818394251
40
-1.8998235583550449
40
-1.8998235583550449
40
-1.8995278438824059
40
-1.8995278438824059
40
-1.8992532632862222
40
-1.8992532632862222
40
-1.8988669133042231
40
-1.8988669133042231
40
-1.8973311905921502
40
-1.8973311905921502
40
-1.8967798935840023
40
-1.8967798935840023
40
-1.8958528288005239
40
-1.8958528288005239
40
-1.8952141157481952
40
-1.8952141157481952
40
-1.8947382682495928
40
-1.8947382682495928
40
-1.0746256274599377
40
-1.0746256274599377
40
-9.9998873928010138e-07
40
-9.9998873928010138e-07
40
-9.9998873928010138e-07
40
-9.9998873928010138e-07
10
1.9824516877149858
20
-3.2996917930411382
30
0
10
1.9825831846081237
20
-3.2996964096846524
30
0
10
1.9827146908200433
20
-3.29970092348873
30
0
10
1.9867675995780938
20
-3.2998369588688314
30
0
10
1.9910590205833063
20
-3.2998878249694381
30
0
10
1.9957588264638575
20
-3.2999137682798612
30
0
10
1.9967154985118085
20
-3.2999173089162643
30
0
10
1.9984761934084903
20
-3.2999211787550347
30
0
10
1.99913667446927
20
-3.2999216889037992
30
0
10
2.0001885666006616
20
-3.2999217550676248
30
0
10
2.0003587484559184
20
-3.2999217482681185
30
0
10
2.0005960979942801
20
-3.2999217200932272
30
0
10
2.0006630324521746
20
-3.299921710079027
30
0
10
2.0007781939858833
20
-3.2999216897388921
30
0
10
2.0008264022665347
20
-3.2999216802865714
30
0
10
2.0009193836867638
20
-3.299921660438434
30
0
10
2.0009641473176574
20
-3.2999216501602056
30
0
10
2.0010719065875033
20
-3.2999216238713802
30
0
10
2.0011348853176134
20
-3.299921607235651
30
0
10
2.001448267752016
20
-3.2999215192621989
30
0
10
2.0016964740483418
20
-3.2999214331972548
30
0
10
2.0020387115322285
20
-3.2999213120721982
30
0
10
2.0021290562132932
20
-3.299921279867863
30
0
10
2.0023713500412121
20
-3.2999211947763336
30
0
10
2.0025231749905061
20
-3.2999211428031909
30
0
10
2.0027797693387916
20
-3.299921062894775
30
0
10
2.0028843924855289
20
-3.2999210325405088
30
0
10
2.003067036324865
20
-3.2999209853230864
30
0
10
2.0031450137974565
20
-3.2999209677352885
30
0
10
2.1376154408919605
20
-3.2998910146004943
30
0
10
2.3019315631446005
20
-3.299848683383749
30
0
10
2.5547829374207791
20
-3.2997823031075022
30
0
10
2.699277260163127
20
-3.2997429677574392
30
0
10
2.8403041154654227
20
-3.2997048556786228
30
0
0
ARC
5
113
100
AcDbEntity
8
0
100
AcDbCircle
10
2.827000000194539
20
-2.9999999999999996
30
0
40
0.30000000000080967
210
-0
220
0
230
1
100
AcDbArc
50
272.54173243626275
51
356.52678893493078
0
SPLINE
5
114
100
AcDbEntity
8
0
100
AcDbSpline
70
0
71
3
72
30
73
26
74
0
42
0.000000001
43
0.0000000001
44
0.0000000001
40
-5.0977454476286068
40
-5.0977454476286068
40
-5.0977454476286068
40
-5.0977454476286068
40
-2.7446119844656516
40
-2.7446119844656516
40
-0.061393748535162898
40
-0.061393748535162898
40
-0.041941512345687083
40
-0.041941512345687083
40
-0.040374743166649955
40
-0.040374743166649955
40
-0.040137447841176448
40
-0.040137447841176448
40
-0.039718946477133532
40
-0.039718946477133532
40
-0.039194981940731358
40
-0.039194981940731358
40
-0.038092431357912966
40
-0.038092431357912966
40
-0.032238056509817876
40
-0.032238056509817876
40
-0.030406157935662433
40
-0.030406157935662433
40
-0.022035630789280482
40
-0.022035630789280482
40
0
40
0
40
0
40
0
10
3.1264489729774909
20
-3.0181745550436072
30
0
10
3.1265226857691517
20
-2.8469946377918856
30
0
10
3.1266220402580864
20
-2.6470605579676239
30
0
10
3.1267770319432238
20
-2.336111251813604
30
0
10
3.1268649621704716
20
-2.170446721511198
30
0
10
3.1269318289646475
20
-2.0035811816913975
30
0
10
3.1269323083615963
20
-2.0023810703579032
30
0
10
3.1269328251066018
20
-2.0010832745599472
30
0
10
3.1269328636167568
20
-2.0009865317915638
30
0
10
3.1269329079479
20
-2.0008751368320477
30
0
10
3.1269329788487736
20
-2.0006971567680836
30
0
10
3.1269330084374736
20
-2.0006221223862211
30
0
10
3.1269330252298029
20
-2.0005742401507143
30
0
10
3.1269330580389583
20
-2.0004664062850601
30
0
10
3.1269330727928972
20
-2.000406457340929
30
0
10
3.1269331069572699
20
-2.0002203577850497
30
0
10
3.1269331135193408
20
-2.0000942024685107
30
0
10
3.1269330347567084
20
-1.9992982449513363
30
0
10
3.126932430574159
20
-1.9986193480441985
30
0
10
3.126930394195333
20
-1.9977404707856476
30
0
10
3.1269298127743155
20
-1.9975305084447645
30
0
10
3.1269259523988544
20
-1.9963639014690759
30
0
10
3.1269197515899623
20
-1.9952052269584601
30
0
10
3.1268866317288975
20
-1.9913170842610002
30
0
10
3.1268380895228023
20
-1.98826920837251
30
0
10
3.1267322246631783
20
-1.9853793317320478
30
0
0
SPLINE
5
115
100
AcDbEntity
8
0
100
AcDbSpline
70
0
71
3
72
16
73
12
74
0
42
0.000000001
43
0.0000000001
44
0.0000000001
40
-0.96884854018439426
40
-0.96884854018439426
40
-0.96884854018439426
40
-0.96884854018439426
40
-0.66644713033619496
40
-0.66644713033619496
40
-0.31424746734236297
40
-0.31424746734236297
40
-0.16901861974361818
40
-0.16901861974361818
40
-0.084598796523060113
40
-0.084598796523060113
40
-1.0436632501971203e-07
40
-1.0436632501971203e-07
40
-1.0436632501971203e-07
40
-1.0436632501971203e-07
10
3.1267322252934471
20
-1.985376984781271
30
0
10
3.124849518549687
20
-1.9339650181712791
30
0
10
3.1130860615046418
20
-1.8834150219543535
30
0
10
3.0674724954973676
20
-1.7816475097390632
30
0
10
3.0445847050003176
20
-1.7561931823929353
30
0
10
2.9900185628671103
20
-1.6911637864716733
30
0
10
2.9806529022773653
20
-1.6800022268168253
30
0
10
2.9676430004288812
20
-1.6526676600596666
30
0
10
2.9639998490728923
20
-1.6421355808410016
30
0
10
2.9590964803145643
20
-1.6204284524424057
30
0
10
2.9578660030359898
20
-1.609352550619749
30
0
10
2.9578660000000072
20
-1.598250360112861
30
0
0
LINE
5
116
100
AcDbEntity
8
0
100
AcDbLine
10
2.9578660000000077
20
-1.598250360112861
30
0
11
2.9578660000000014
21
1.5982503190237576
31
0
0
SPLINE
5
117
100
AcDbEntity
8
0
100
AcDbSpline
70
0
71
3
72
16
73
12
74
0
42
0.000000001
43
0.0000000001
44
0.0000000001
40
-1.4419556271889102
40
-1.4419556271889102
40
-1.4419556271889102
40
-1.4419556271889102
40
-1.2668173148495281
40
-1.2668173148495281
40
-1.0919613912919777
40
-1.0919613912919777
40
-0.84800842823399269
40
-0.84800842823399269
40
-0.38580156362467077
40
-0.38580156362467077
40
-1.6386294976906259e-05
40
-1.6386294976906259e-05
40
-1.6386294976906259e-05
40
-1.6386294976906259e-05
10
2.957866000000001
20
1.5982503190237569
30
0
10
2.9578660000000014
20
1.6101731649058968
30
0
10
2.9592850108101985
20
1.6220599699149103
30
0
10
2.9649331534344987
20
1.6452895336549469
30
0
10
2.9691269321050857
20
1.6565063890720899
30
0
10
2.9822501672832731
20
1.6819057731258307
30
0
10
2.9903703554510046
20
1.6915830365472737
30
0
10
3.044426849332786
20
1.7560050573339878
30
0
10
3.0684944792509095
20
1.7830438410910256
30
0
10
3.1134578220158762
20
1.8850152384255545
30
0
10
3.1248794710407681
20
1.9347829617402881
30
0
10
3.1267322252934284
20
1.9853769847807943
30
0
0
SPLINE
5
118
100
AcDbEntity
8
0
100
AcDbSpline
70
0
71
3
72
46
73
42
74
0
42
0.000000001
43
0.0000000001
44
0.0000000001
40
-2.9010450555401999
40
-2.9010450555401999
40
-2.9010450555401999
40
-2.9010450555401999
40
-2.8711524315085599
40
-2.8711524315085599
40
-2.8683674710182969
40
-2.8683674710182969
40
-2.8621282227764966
40
-2.8621282227764966
40
-2.8604044916345779
40
-2.8604044916345779
40
-2.8596086027975636
40
-2.8596086027975636
40
-2.8589950936249044
40
-2.8589950936249044
40
-2.8583156725921075
40
-2.8583156725921075
40
-2.857167251803955
40
-2.857167251803955
40
-2.8524376865478329
40
-2.8524376865478329
40
-2.8491687001479309
40
-2.8491687001479309
40
-2.8478035206902268
40
-2.8478035206902268
40
-2.8467184742427327
40
-2.8467184742427327
40
-2.845869191052524
40
-2.845869191052524
40
-2.8451154544079253
40
-2.8451154544079253
40
-2.8435792114888252
40
-2.8435792114888252
40
-2.8408229684249791
40
-2.8408229684249791
40
-2.8195114203327081
40
-2.8195114203327081
40
-2.6519004976361571
40
-2.6519004976361571
40
-1.3043433232560286
40
-1.3043433232560286
40
-1.0001327168296356e-06
40
-1.0001327168296356e-06
40
-1.0001327168296356e-06
40
-1.0001327168296356e-06
10
3.1267322262324884
20
1.9853769847464036
30
0
10
3.1268751372040646
20
1.9892791912563603
30
0
10
3.1269172492341117
20
1.9937425600563285
30
0
10
3.1269302876518665
20
1.9976713800350174
30
0
10
3.1269311637141093
20
1.9980067660119079
30
0
10
3.1269332737577447
20
1.9990916993358956
30
0
10
3.1269336796604352
20
1.999958485256996
30
0
10
3.1269337440018101
20
2.0007962753177897
30
0
10
3.1269337320273549
20
2.0009775889326633
30
0
10
3.1269336829098031
20
2.0012426876420149
30
0
10
3.1269336627867119
20
2.0013264207683279
30
0
10
3.126933619745051
20
2.0014747094584298
30
0
10
3.1269335985255573
20
2.0015392565089725
30
0
10
3.1269335489861887
20
2.0016752914058866
30
0
10
3.1269335201513391
20
2.0017467719088953
30
0
10
3.1269334357578082
20
2.0019390878621008
30
0
10
3.1269333755090423
20
2.0020598930571851
30
0
10
3.1269330368125856
20
2.0026783574174951
30
0
10
3.1269326790624703
20
2.0031555352204959
30
0
10
3.1269320177363982
20
2.0040276171873601
30
0
10
3.1269317514361412
20
2.0043761957390025
30
0
10
3.1269314176165759
20
2.0048756178466127
30
0
10
3.1269313251584658
20
2.0050227296027474
30
0
10
3.1269311744063306
20
2.0052867933328873
30
0
10
3.1269311130089048
20
2.0054037151001913
30
0
10
3.1269310153938599
20
2.0056121802066036
30
0
10
3.1269309781224983
20
2.0057037085129195
30
0
10
3.1269309087708366
20
2.0058764679555923
30
0
10
3.1269308761549031
20
2.0059576990956769
30
0
10
3.1269307770484875
20
2.0062044748398336
30
0
10
3.1269307105337965
20
2.0063700254343275
30
0
10
3.1269305246002035
20
2.0068326024045748
30
0
10
3.1269304051183844
20
2.0071296271473766
30
0
10
3.1269293610051712
20
2.0097232375504657
30
0
10
3.1269284309291838
20
2.0120199363072806
30
0
10
3.1269201402913871
20
2.032376361769868
30
0
10
3.1269124203594565
20
2.0505196168371316
30
0
10
3.126841116013626
20
2.2129139451728372
30
0
10
3.1267665481261071
20
2.3573438833007194
30
0
10
3.1266248558275374
20
2.6415720336574546
30
0
10
3.1265226852857952
20
2.8470009851518721
30
0
10
3.1264489730090843
20
3.0181745550310226
30
0
0
ARC
5
119
100
AcDbEntity
8
0
100
AcDbCircle
10
2.8270000003890758
20
2.9999999999999938
30
0
40
0.30000000275625743
210
0
220
-0
230
1
100
AcDbArc
50
3.4732110479013891
51
89.999999999999417
0
LINE
5
120
100
AcDbEntity
8
0
100
AcDbLine
10
2.8270000003890789
20
3.2999999998054599
30
0
11
-2.827000000194539
21
3.2999999998054621
31
0
0
CIRCLE
5
121
100
AcDbEntity
8
0
100
AcDbCircle
10
1.9999999999999998
20
-2.4999999999999996
30
0
40
0.12499999999999988
210
0
220
0
230
1
0
CIRCLE
5
122
100
AcDbEntity
8
0
100
AcDbCircle
10
-1.9999999999999998
20
-2.4999999999999996
30
0
40
0.12499999999999988
210
0
220
0
230
1
0
CIRCLE
5
123
100
AcDbEntity
8
0
100
AcDbCircle
10
-1.9999999999999998
20
2.4999999999999996
30
0
40
0.12499999999999988
210
0
220
0
230
1
0
CIRCLE
5
124
100
AcDbEntity
8
0
100
AcDbCircle
10
1.9999999999999998
20
2.4999999999999996
30
0
40
0.12499999999999988
210
0
220
0
230
1
0
LWPOLYLINE
5
125
100
AcDbEntity
8
0
100
AcDbPolyline
90
6
70
1
43
0.0
10
-2.5835339464280263
20
-3.1446850393700796
10
-2.6670678928560525
20
-3.0000000000000009
10
-2.5835339464280249
20
-2.8553149606299217
10
-2.4164660535719729
20
-2.8553149606299217
10
-2.3329321071439457
20
-3
10
-2.4164660535719733
20
-3.1446850393700796
0
LWPOLYLINE
5
126
100
AcDbEntity
8
0
100
AcDbPolyline
90
6
70
1
43
0.0
10
2.4164660535719729
20
-3.1446850393700796
10
2.3329321071439457
20
-3.0000000000000009
10
2.4164660535719733
20
-2.8553149606299226
10
2.5835339464280276
20
-2.8553149606299226
10
2.6670678928560525
20
-2.9999999999999996
10
2.5835339464280254
20
-3.1446850393700796
0
LWPOLYLINE
5
127
100
AcDbEntity
8
0
100
AcDbPolyline
90
6
70
1
43
0.0
10
2.4164660535719729
20
2.8553149606299209
10
2.3329321071439457
20
3
10
2.4164660535719729
20
3.1446850393700783
10
2.5835339464280254
20
3.1446850393700783
10
2.6670678928560521
20
3
10
2.5835339464280249
20
2.8553149606299209
0
LWPOLYLINE
5
128
100
AcDbEntity
8
0
100
AcDbPolyline
90
6
70
1
43
0.0
10
-2.5835339464280254
20
2.8553149606299217
10
-2.6670678928560525
20
3
10
-2.5835339464280263
20
3.1446850393700783
10
-2.4164660535719733
20
3.1446850393700783
10
-2.3329321071439466
20
3
10
-2.4164660535719729
20
2.8553149606299217
0
CIRCLE
5
129
100
AcDbEntity
8
0
100
AcDbCircle
10
2.850000000000001
20
3.0184999999999986
30
0
40
0.092500000000000179
210
0
220
-0
230
1
0
CIRCLE
5
130
100
AcDbEntity
8
0
100
AcDbCircle
10
2.8500000000000001
20
-2.9815000000000027
30
0
40
0.092500000000000179
210
0
220
-0
230
1
0
CIRCLE
5
131
100
AcDbEntity
8
0
100
AcDbCircle
10
-2.8500000000000001
20
-2.9815000000000027
30
0
40
0.092500000000000179
210
0
220
-0
230
1
0
CIRCLE
5
132
100
AcDbEntity
8
0
100
AcDbCircle
10
-2.850000000000001
20
3.0184999999999986
30
0
40
0.092500000000000179
210
0
220
-0
230
1
0
LWPOLYLINE
5
133
100
AcDbEntity
8
0
100
AcDbPolyline
90
8
70
1
43
0.0
10
1.8607403216200116
20
-2.3184999999999998
10
-1.8607403216200116
20
-2.3185000000000002
42
-0.41421356237309503
10
-2.3607403216200114
20
-1.8185000000000002
10
-2.3607403216200118
20
1.8185000000000002
42
-0.41421356237309503
10
-1.8607403216200116
20
2.3185000000000002
10
1.8607403216200116
20
2.3185000000000002
42
-0.41421356237309503
10
2.3607403216200114
20
1.8185000000000007
10
2.3607403216200118
20
-1.8184999999999991
42
-0.4142135623730952
0
LINE
5
134
100
AcDbEntity
8
0
100
AcDbLine
10
2.8270000003890789
20
3.2999999998054621
30
0
11
-2.827000000194539
21
3.2999999998054621
31
0
0
ENDSEC
0
SECTION
2
OBJECTS
0
DICTIONARY
5
C
100
AcDbDictionary
3
ACAD_GROUP
350
D
3
ACAD_MLINESTYLE
350
17
0
DICTIONARY
5
D
100
AcDbDictionary
0
DICTIONARY
5
1A
330
C
100
AcDbDictionary
0
DICTIONARY
5
17
100
AcDbDictionary
0
ENDSEC
0
EOF
